PathFileType	4	(X/Y/Z)	 s07c0302.trc
DataRate	CameraRate	NumFrames	NumMarkers	Units	OrigDataRate	OrigDataStartFrame	OrigNumFrames
200	200	4	48	mm	200	1501	2000
Frame#	Time	racr			lacr			c7			jug			rlel			rdr			llel			ldr			s2			lic			ric			lasi			rasi			rpsi			lpsi			rgt			lgt			rth1			rth2			rth3			rth4			rlfc			rmfc			rsh1			rsh2			rsh3			rsh4			rlmal			rcal			rtoe			rmt5			lth1			lth2			lth4			lth3			llfc			lmfc			lsh1			lsh2			lsh3			lsh4			llmal			lcal			ltoe			lmt5			SBIKE			LBIKE			RBIKE			
		X1	Y1	Z1	X2	Y2	Z2	X3	Y3	Z3	X4	Y4	Z4	X5	Y5	Z5	X6	Y6	Z6	X7	Y7	Z7	X8	Y8	Z8	X9	Y9	Z9	X10	Y10	Z10	X11	Y11	Z11	X12	Y12	Z12	X13	Y13	Z13	X14	Y14	Z14	X15	Y15	Z15	X16	Y16	Z16	X17	Y17	Z17	X18	Y18	Z18	X19	Y19	Z19	X20	Y20	Z20	X21	Y21	Z21	X22	Y22	Z22	X23	Y23	Z23	X24	Y24	Z24	X25	Y25	Z25	X26	Y26	Z26	X27	Y27	Z27	X28	Y28	Z28	X29	Y29	Z29	X30	Y30	Z30	X31	Y31	Z31	X32	Y32	Z32	X33	Y33	Z33	X34	Y34	Z34	X35	Y35	Z35	X36	Y36	Z36	X37	Y37	Z37	X38	Y38	Z38	X39	Y39	Z39	X40	Y40	Z40	X41	Y41	Z41	X42	Y42	Z42	X43	Y43	Z43	X44	Y44	Z44	X45	Y45	Z45	X46	Y46	Z46	X47	Y47	Z47	X48	Y48	Z48	
1501	7.5050	834.612362	1362.261342	-110.657150	796.263696	1386.295003	-427.691127	818.729514	1431.300682	-267.931981	751.156226	1294.751533	-274.739085	596.046793	1139.043878	47.231029	727.197031	909.365207	-49.454055	569.777841	1128.218443	-515.818895	729.485598	913.312986	-402.584655	215.551834	1290.420240	-204.419871	363.319670	1325.609868	-355.093864	414.802984	1275.254972	-81.649265	376.141307	1243.680627	-349.599728	414.172978	1219.059242	-102.835629	262.171128	1319.817449	-151.796478	253.630081	1337.091045	-260.979167	325.345928	1153.060236	-40.887110	281.858413	1187.473098	-398.356184	379.215226	1001.161994	-47.631661	413.088141	921.058292	-60.302879	409.308923	835.556580	-56.173642	443.497397	928.058996	-79.030864	406.496248	699.692461	-85.597011	389.221449	690.455562	-186.335049	295.256315	611.351250	-56.852794	245.087241	540.909803	-72.515832	166.317925	501.291590	-67.484137	255.569365	530.801712	-111.613870	56.215926	412.718543	-67.314668	-7.010383	449.853062	-96.673821	120.404787	185.995232	-122.774628	53.049168	234.451856	-52.202738	355.738745	1087.317455	-408.374629	432.807111	1044.637241	-415.484111	459.199951	1069.235062	-407.126780	478.470156	968.065989	-415.318147	588.888938	822.618050	-388.682500	581.367037	806.666613	-290.064388	491.674434	708.674078	-407.256061	451.297224	634.716420	-387.361933	375.557107	585.377592	-392.130334	455.806567	635.543326	-345.193461	277.716933	494.258779	-391.947518	194.386390	479.867095	-360.812727	461.616567	368.808527	-353.259452	378.979007	371.025856	-420.338273	-257.837953	969.689862	-233.087346	-75.520362	83.647368	-437.571691	-82.179748	80.107697	-39.968970	
1502	7.5100	832.554121	1363.636406	-110.167619	794.918852	1386.391867	-427.269818	816.923323	1431.649099	-267.449363	749.501447	1295.283369	-274.022541	595.692372	1138.789580	47.680155	727.111045	909.167855	-49.237873	568.827261	1127.943898	-515.390110	729.317065	913.377424	-402.243893	213.924244	1290.171031	-203.738245	358.460980	1326.525859	-365.328017	413.154116	1275.919163	-81.854103	373.997868	1243.203942	-350.068105	413.003397	1219.984833	-103.145109	259.718238	1318.874967	-152.260614	251.871252	1336.787362	-260.948383	325.692677	1153.218963	-40.833832	278.749275	1186.194271	-397.651427	383.105187	1003.101136	-48.555738	418.565674	923.804835	-61.584125	416.657058	838.236983	-57.241200	448.669882	931.329036	-80.523371	414.330338	702.291006	-86.218656	396.551148	693.272666	-187.075453	301.387512	615.563689	-57.670729	250.241918	545.877933	-73.094985	170.785906	507.538001	-67.964183	260.111977	535.360451	-112.587928	59.454025	421.443423	-67.401418	-3.758760	458.352953	-100.076448	114.659984	191.896188	-124.152953	50.383078	243.505290	-52.030634	351.253061	1084.603792	-407.958817	427.575789	1040.688852	-415.803111	453.606233	1065.295006	-408.714695	472.059398	963.445108	-415.455396	580.962655	816.702550	-389.279778	573.830298	800.601390	-291.526784	485.335562	700.678760	-407.738788	447.040990	625.890161	-387.839081	372.687950	574.809353	-392.856295	451.451581	626.768056	-345.680860	277.361173	481.434356	-392.233987	194.603359	466.202820	-360.586132	463.759294	360.239576	-353.848431	380.661870	360.765794	-420.713103	-257.796629	969.635752	-233.058210	-75.536876	83.553454	-437.509706	-82.129430	79.986174	-40.026398	
1503	7.5150	830.492268	1365.133018	-109.593081	793.632747	1386.493900	-426.906696	814.941056	1432.014144	-266.240838	748.062373	1295.706965	-273.074548	595.412372	1138.630426	48.071333	727.007804	909.047884	-49.052785	567.958181	1127.705145	-515.072280	729.212480	913.481542	-402.066541	212.253516	1289.785110	-203.144714	356.289409	1325.716167	-365.652545	411.501527	1276.357742	-82.082759	371.737827	1242.549723	-350.439275	411.777636	1220.772964	-103.476433	257.043067	1317.018068	-153.242893	250.195418	1336.325332	-261.101097	326.036215	1153.620674	-40.845215	275.680171	1184.831300	-396.858226	386.736989	1005.266867	-49.420023	423.727807	926.649839	-62.641148	423.556084	841.168065	-58.230330	453.573902	934.798059	-81.686509	422.104303	704.955013	-86.864538	403.676863	696.181099	-187.921351	307.687413	619.701034	-58.403448	255.444586	550.855741	-73.584153	175.431168	513.790502	-68.380480	265.569225	540.120706	-112.645670	63.112727	429.935711	-67.383149	0.257369	467.771259	-102.065308	110.784639	198.990772	-124.144890	48.175512	252.742397	-52.026535	346.847064	1081.705523	-407.561260	422.394804	1036.655255	-416.168875	448.556130	1060.886445	-410.433034	465.680444	958.638584	-415.577173	572.778656	810.841980	-390.313381	566.368988	794.637764	-292.949467	478.915739	693.194687	-408.700840	442.703555	617.287827	-388.420471	369.630374	564.381985	-393.255777	447.115422	618.542736	-346.309663	276.839387	468.986581	-392.288011	194.168989	453.104182	-360.582306	465.319180	351.045887	-354.179831	382.128094	350.248080	-420.793898	-257.772094	969.614926	-233.058868	-75.512730	83.583944	-437.567801	-82.105335	79.948660	-40.042964	
1504	7.5200	828.389857	1366.810241	-108.948954	792.405593	1386.497481	-426.336495	813.074576	1432.492025	-265.653604	746.542315	1296.114787	-272.067421	595.156012	1138.540410	48.486185	728.460836	908.780203	-48.446766	567.240330	1127.400954	-514.750651	729.205595	913.548810	-401.903233	210.509265	1289.296759	-202.634838	354.041428	1324.822800	-366.018357	409.748331	1276.909758	-82.370075	369.634180	1241.820589	-350.990469	410.475600	1221.731047	-103.944302	254.783992	1315.859886	-153.855449	248.137166	1335.635887	-261.174380	326.354748	1154.144773	-40.845624	272.882815	1183.342657	-396.201227	390.113951	1007.442602	-50.055032	428.504846	929.543528	-62.713400	429.722163	844.256191	-59.362557	458.512450	937.986473	-83.345010	429.766413	707.847265	-87.530506	410.576917	699.273063	-188.770271	314.128632	623.815589	-59.123989	260.717889	555.753917	-74.070840	180.383943	519.724893	-68.852927	270.839126	544.722491	-113.077520	67.144504	438.378965	-67.212151	5.115777	478.258806	-102.319921	107.586570	206.501460	-124.029148	46.615744	262.070836	-52.087784	342.573472	1078.825298	-407.317928	417.297061	1032.515924	-416.481346	444.095031	1056.276079	-410.809492	459.296324	953.786514	-415.766879	564.602658	805.162914	-391.241920	559.089386	788.760687	-294.442719	472.662847	685.918443	-409.716662	438.310700	609.189260	-389.289240	366.559652	554.530857	-393.659650	442.927642	610.500952	-347.168081	276.167523	456.929494	-392.380043	194.236441	440.060282	-360.566878	466.245175	341.692731	-354.121388	383.162584	339.848026	-420.808142	-257.760342	969.612214	-233.097104	-75.566140	83.503791	-437.501358	-82.114367	79.926900	-40.037295	
